<?xml version="1.0" encoding="UTF-8"?>
<!DOCTYPE svg PUBLIC "-//W3C//DTD SVG 1.1//EN" "http://www.w3.org/Graphics/SVG/1.1/DTD/svg11.dtd">
<svg xmlns="http://www.w3.org/2000/svg" version="1.1" width="200px" height="200px" style="shape-rendering:geometricPrecision; text-rendering:geometricPrecision; image-rendering:optimizeQuality; fill-rule:evenodd; clip-rule:evenodd" xmlns:xlink="http://www.w3.org/1999/xlink">
<g><path style="opacity:0.008" fill="#80bbff" d="M 25.5,23.5 C 20.7984,23.9504 16.1317,24.617 11.5,25.5C 13.4385,23.8372 15.7718,23.1706 18.5,23.5C 18.5,22.5 18.5,21.5 18.5,20.5C 20.8333,20.5 23.1667,20.5 25.5,20.5C 25.5,21.5 25.5,22.5 25.5,23.5 Z"/></g>
<g><path style="opacity:0.008" fill="#80bbff" d="M 25.5,23.5 C 27.5273,23.3379 29.5273,23.5045 31.5,24C 29.2884,24.7891 27.2884,24.6225 25.5,23.5 Z"/></g>
<g><path style="opacity:0.008" fill="#80bbff" d="M 33.5,25.5 C 33.8966,24.475 34.5632,24.3083 35.5,25C 34.9056,25.4643 34.2389,25.631 33.5,25.5 Z"/></g>
<g><path style="opacity:0.008" fill="#80bbff" d="M 11.5,25.5 C 10.2196,26.9313 8.55292,27.5979 6.5,27.5C 7.63535,25.7868 9.30202,25.1201 11.5,25.5 Z"/></g>
<g><path style="opacity:0.008" fill="#80bbff" d="M 36.5,26.5 C 37.2506,25.4265 38.2506,25.2599 39.5,26C 38.552,26.4828 37.552,26.6495 36.5,26.5 Z"/></g>
<g><path style="opacity:0.008" fill="#80bbff" d="M 31.5,28.5 C 30.537,27.6365 30.537,26.9698 31.5,26.5C 32.7733,27.2565 32.7733,27.9232 31.5,28.5 Z"/></g>
<g><path style="opacity:0.008" fill="#80bbff" d="M 40.5,27.5 C 40.8966,26.475 41.5632,26.3083 42.5,27C 41.9056,27.4643 41.2389,27.631 40.5,27.5 Z"/></g>
<g><path style="opacity:0.008" fill="#80bbff" d="M 6.5,27.5 C 6.10343,28.525 5.43677,28.6917 4.5,28C 5.09442,27.5357 5.76109,27.369 6.5,27.5 Z"/></g>
<g><path style="opacity:0.008" fill="#80bbff" d="M 43.5,28.5 C 43.8966,27.475 44.5632,27.3083 45.5,28C 44.9056,28.4643 44.2389,28.631 43.5,28.5 Z"/></g>
<g><path style="opacity:0.008" fill="#80bbff" d="M 10.5,28.5 C 11.8333,29.1667 11.8333,29.1667 10.5,28.5 Z"/></g>
<g><path style="opacity:0.008" fill="#80bbff" d="M 46.5,28.5 C 47.8333,29.1667 47.8333,29.1667 46.5,28.5 Z"/></g>
<g><path style="opacity:0.008" fill="#80bbff" d="M 3.5,29.5 C 4.83333,30.1667 4.83333,30.1667 3.5,29.5 Z"/></g>
<g><path style="opacity:0.008" fill="#80bbff" d="M 48.5,29.5 C 49.8333,30.1667 49.8333,30.1667 48.5,29.5 Z"/></g>
<g><path style="opacity:0.008" fill="#80bbff" d="M 3.5,30.5 C 3.01328,31.4734 2.51328,32.4734 2,33.5C 1.27484,31.8425 1.77484,30.8425 3.5,30.5 Z"/></g>
<g><path style="opacity:0.065" fill="#81bbff" d="M 31.5,28.5 C 32.7927,29.6448 33.9593,29.3115 35,27.5C 35.3333,28.5 35.6667,29.5 36,30.5C 36.6891,29.6433 37.5224,28.9767 38.5,28.5C 38.9976,29.6034 39.3309,30.6034 39.5,31.5C 40.4776,31.0233 41.3109,30.3567 42,29.5C 42.2321,30.7375 42.7321,31.7375 43.5,32.5C 44.531,33.2485 45.6976,33.9152 47,34.5C 48.6667,34.1667 50.3333,33.8333 52,33.5C 52.3333,34.1667 52.6667,34.8333 53,35.5C 54,35.5 55,35.5 56,35.5C 58.7015,37.7039 61.5348,39.7039 64.5,41.5C 64.9672,44.8258 66.1339,45.1591 68,42.5C 68.3122,45.3092 69.8122,46.9759 72.5,47.5C 75.1954,50.5256 77.8621,53.5256 80.5,56.5C 79.1667,56.8333 79.1667,57.1667 80.5,57.5C 80.7828,58.2891 81.2828,58.9558 82,59.5C 82.7697,58.4019 83.603,58.4019 84.5,59.5C 84.369,60.2389 84.5357,60.9056 85,61.5C 88.1121,64.698 91.4454,67.698 95,70.5C 95.3333,69.5 95.6667,68.5 96,67.5C 97.4875,69.8305 99.3209,70.1638 101.5,68.5C 102.98,66.3969 104.147,66.3969 105,68.5C 107.628,66.8745 109.961,64.8745 112,62.5C 114.242,63.1747 116.409,62.6747 118.5,61C 118.167,60.6667 117.833,60.3333 117.5,60C 121.078,58.7135 124.244,56.8802 127,54.5C 127.414,54.9574 127.914,55.2907 128.5,55.5C 129.141,54.0065 130.141,53.0065 131.5,52.5C 131.56,53.0431 131.893,53.3764 132.5,53.5C 133.251,52.624 133.751,51.624 134,50.5C 135.418,53.001 136.418,52.6677 137,49.5C 137.308,50.3081 137.808,50.9747 138.5,51.5C 139.448,48.285 140.781,47.9516 142.5,50.5C 143.386,49.675 143.719,48.675 143.5,47.5C 145.167,47.5 146.833,47.5 148.5,47.5C 150.688,46.3773 153.021,46.3773 155.5,47.5C 155.389,46.8826 155.056,46.3826 154.5,46C 159.352,45.1849 164.019,45.3516 168.5,46.5C 170.5,46.5 172.5,46.5 174.5,46.5C 174.633,49.8957 175.633,50.2291 177.5,47.5C 178.311,49.3909 179.644,50.7242 181.5,51.5C 182.463,51.0302 182.463,50.3635 181.5,49.5C 182.833,50.8333 184.167,52.1667 185.5,53.5C 186.833,54.1667 188.167,54.8333 189.5,55.5C 188.766,56.7079 188.433,58.0413 188.5,59.5C 187.5,59.5 186.5,59.5 185.5,59.5C 185.48,61.143 186.147,62.4763 187.5,63.5C 187.065,65.9966 185.731,67.1633 183.5,67C 181.808,65.6927 180.475,64.1927 179.5,62.5C 179.414,61.5041 179.748,60.6708 180.5,60C 168.631,55.6769 156.631,55.3436 144.5,59C 129.251,63.4565 115.585,70.7899 103.5,81C 97.9314,84.2976 92.5981,83.7976 87.5,79.5C 70.9409,51.4295 46.9409,37.2628 15.5,37C 5.85491,39.7894 2.68824,45.9561 6,55.5C 8.08363,59.3359 10.417,63.0026 13,66.5C 20.6667,73.5 28.3333,80.5 36,87.5C 41.9353,94.3662 46.602,102.033 50,110.5C 49.8676,122.301 52.5343,133.635 58,144.5C 71.5172,162.339 88.0172,165.839 107.5,155C 116.539,148.111 123.039,139.277 127,128.5C 136.311,119.518 146.478,111.685 157.5,105C 164.475,102.762 170.975,99.5954 177,95.5C 177.671,96.2524 178.504,96.5858 179.5,96.5C 179.535,97.4037 180.035,98.0704 181,98.5C 181.945,98.0946 182.612,97.428 183,96.5C 183.74,98.3187 184.907,99.6521 186.5,100.5C 186.5,100.833 186.5,101.167 186.5,101.5C 185.761,101.369 185.094,101.536 184.5,102C 184.07,102.92 183.736,103.753 183.5,104.5C 182.676,102.252 181.676,102.086 180.5,104C 180.833,104.333 181.167,104.667 181.5,105C 179.751,106.292 177.918,107.458 176,108.5C 174.84,106.203 173.84,106.536 173,109.5C 172.023,108.226 171.189,108.226 170.5,109.5C 169.508,109.328 168.842,109.662 168.5,110.5C 167.508,110.328 166.842,110.662 166.5,111.5C 165.778,111.918 165.278,112.584 165,113.5C 164.282,112.549 163.449,112.383 162.5,113C 163.833,114.84 163.666,115.34 162,114.5C 161.16,117.464 160.16,117.797 159,115.5C 157.647,116.685 156.48,118.019 155.5,119.5C 154.914,119.291 154.414,118.957 154,118.5C 150.119,120.446 146.786,123.112 144,126.5C 143.667,126.167 143.333,125.833 143,125.5C 140.14,127.502 137.64,129.835 135.5,132.5C 133.495,133.254 132.828,134.421 133.5,136C 132.5,136.833 131.5,137.667 130.5,138.5C 131.025,139.192 131.692,139.692 132.5,140C 130.21,141.777 128.543,143.944 127.5,146.5C 125.014,147.462 125.014,148.295 127.5,149C 126.377,150.044 125.044,150.71 123.5,151C 123.957,151.414 124.291,151.914 124.5,152.5C 123.757,153.182 123.091,153.849 122.5,154.5C 119.838,157.655 116.505,159.822 112.5,161C 114.657,162.085 114.824,163.251 113,164.5C 112.667,163.833 112.333,163.167 112,162.5C 111.148,163.571 110.315,164.571 109.5,165.5C 109.289,163.576 108.623,163.243 107.5,164.5C 105.067,164.786 105.067,165.452 107.5,166.5C 107.158,167.338 106.492,167.672 105.5,167.5C 105.44,166.957 105.107,166.624 104.5,166.5C 103.071,168.878 101.238,170.212 99,170.5C 98.6667,169.833 98.3333,169.167 98,168.5C 96.3636,172.011 95.1969,172.344 94.5,169.5C 93.2507,171.475 91.7507,171.809 90,170.5C 88.6667,173.167 87.3333,173.167 86,170.5C 84.2493,171.809 82.7493,171.475 81.5,169.5C 81.1667,170.167 80.8333,170.833 80.5,171.5C 79.1861,170.687 78.0195,169.687 77,168.5C 76.6667,169.167 76.3333,169.833 76,170.5C 73.6855,170.282 71.6855,168.948 70,166.5C 69.2352,166.57 68.7352,166.903 68.5,167.5C 66.4885,166.659 65.1552,165.159 64.5,163C 63.1667,162.667 61.8333,162.333 60.5,162C 60.8333,161.667 61.1667,161.333 61.5,161C 57.7671,156.929 53.7671,153.262 49.5,150C 50.4491,149.383 51.2825,149.549 52,150.5C 52.6667,149.5 52.6667,148.5 52,147.5C 51.2303,148.598 50.397,148.598 49.5,147.5C 48.9553,145.407 48.122,143.407 47,141.5C 46.6667,142.167 46.3333,142.833 46,143.5C 45.1628,141.649 44.3295,139.816 43.5,138C 45.9468,136.771 46.1135,135.271 44,133.5C 43.3333,136.167 42.6667,136.167 42,133.5C 40.4517,130.071 40.6184,126.904 42.5,124C 41.5765,122.189 40.7431,122.355 40,124.5C 39.7037,121.294 39.2037,118.128 38.5,115C 38.9054,114.055 39.572,113.388 40.5,113C 38.867,112.52 37.5336,111.687 36.5,110.5C 35.3511,107.959 35.3511,105.459 36.5,103C 34.5313,101.5 33.198,99.6669 32.5,97.5C 29.4433,95.6049 27.2767,92.9382 26,89.5C 25.6174,90.056 25.1174,90.3893 24.5,90.5C 22.5121,88.5351 21.0121,86.2018 20,83.5C 19.6174,84.056 19.1174,84.3893 18.5,84.5C 14.5,79.8333 10.1667,75.5 5.5,71.5C 3.38634,69.9811 1.71967,67.9811 0.5,65.5C 0.709312,64.914 1.04265,64.414 1.5,64C 0.862185,60.0648 0.195518,56.2315 -0.5,52.5C -0.5,49.1667 -0.5,45.8333 -0.5,42.5C 0.722811,37.689 3.72281,34.3557 8.5,32.5C 6.25244,31.676 6.08577,30.676 8,29.5C 9.45793,31.524 11.2913,31.6907 13.5,30C 12.3266,26.8897 12.8266,26.723 15,29.5C 15.4828,28.552 15.6495,27.552 15.5,26.5C 17.7224,26.178 19.5557,26.8446 21,28.5C 21.4828,27.552 21.6495,26.552 21.5,25.5C 22.5,25.5 23.5,25.5 24.5,25.5C 24.259,28.999 25.0924,29.3323 27,26.5C 27.6667,29.1667 28.3333,29.1667 29,26.5C 29.4169,27.756 30.2502,28.4226 31.5,28.5 Z M 155.5,47.5 C 156.363,46.537 157.03,46.537 157.5,47.5C 156.743,48.7733 156.077,48.7733 155.5,47.5 Z M 168.5,46.5 C 169.463,47.3635 169.463,48.0302 168.5,48.5C 167.227,47.7435 167.227,47.0768 168.5,46.5 Z M 148.5,47.5 C 149.773,48.0768 149.773,48.7435 148.5,49.5C 147.537,49.0302 147.537,48.3635 148.5,47.5 Z M 101.5,69.5 C 101.5,69.1667 101.5,68.8333 101.5,68.5C 102.376,68.3691 103.043,68.7025 103.5,69.5C 103.03,70.463 102.363,70.463 101.5,69.5 Z M 107.5,164.5 C 108.623,163.243 109.289,163.576 109.5,165.5C 108.833,165.167 108.167,164.833 107.5,164.5 Z"/></g>
<g><path style="opacity:0.008" fill="#80bbff" d="M 44.5,30.5 C 45.8333,31.1667 45.8333,31.1667 44.5,30.5 Z"/></g>
<g><path style="opacity:0.008" fill="#80bbff" d="M 50.5,31.5 C 50.8966,30.475 51.5632,30.3083 52.5,31C 51.9056,31.4643 51.2389,31.631 50.5,31.5 Z"/></g>
<g><path style="opacity:0.008" fill="#80bbff" d="M 44.5,31.5 C 43.8333,32.1667 43.8333,32.1667 44.5,31.5 Z"/></g>
<g><path style="opacity:0.008" fill="#80bbff" d="M 53.5,31.5 C 54.8333,32.1667 54.8333,32.1667 53.5,31.5 Z"/></g>
<g><path style="opacity:0.008" fill="#80bbff" d="M 55.5,32.5 C 56.8333,33.1667 56.8333,33.1667 55.5,32.5 Z"/></g>
<g><path style="opacity:0.008" fill="#80bbff" d="M 57.5,33.5 C 58.8333,34.1667 58.8333,34.1667 57.5,33.5 Z"/></g>
<g><path style="opacity:0.008" fill="#80bbff" d="M 59.5,34.5 C 60.8333,35.1667 60.8333,35.1667 59.5,34.5 Z"/></g>
<g><path style="opacity:0.187" fill="#86beff" d="M 179.5,62.5 C 160.602,58.8608 142.602,61.6941 125.5,71C 118.484,75.1742 111.817,79.8409 105.5,85C 99.6536,89.0725 93.6536,89.4058 87.5,86C 82.3887,80.2766 77.8887,74.11 74,67.5C 60.1389,52.7342 43.1389,43.7342 23,40.5C 19.2839,41.0423 15.7839,42.2089 12.5,44C 10.833,45.8234 9.83305,47.99 9.5,50.5C 10.6097,55.3861 12.7764,59.7195 16,63.5C 24.3333,71.1667 32.6667,78.8333 41,86.5C 46.5606,93.0715 50.8939,100.405 54,108.5C 55.0226,114.793 55.6893,121.126 56,127.5C 59.5969,145.098 70.2635,155.098 88,157.5C 98.2756,156.862 106.609,152.529 113,144.5C 116.919,138.33 120.586,131.997 124,125.5C 129.239,119.59 135.072,114.423 141.5,110C 153.221,103.387 165.055,96.8874 177,90.5C 178.268,90.6158 179.602,90.9491 181,91.5C 181.976,95.2517 181.31,95.9183 179,93.5C 178.53,94.5768 178.697,95.5768 179.5,96.5C 178.504,96.5858 177.671,96.2524 177,95.5C 170.975,99.5954 164.475,102.762 157.5,105C 146.478,111.685 136.311,119.518 127,128.5C 123.039,139.277 116.539,148.111 107.5,155C 88.0172,165.839 71.5172,162.339 58,144.5C 52.5343,133.635 49.8676,122.301 50,110.5C 46.602,102.033 41.9353,94.3662 36,87.5C 28.3333,80.5 20.6667,73.5 13,66.5C 10.417,63.0026 8.08363,59.3359 6,55.5C 2.68824,45.9561 5.85491,39.7894 15.5,37C 46.9409,37.2628 70.9409,51.4295 87.5,79.5C 92.5981,83.7976 97.9314,84.2976 103.5,81C 115.585,70.7899 129.251,63.4565 144.5,59C 156.631,55.3436 168.631,55.6769 180.5,60C 179.748,60.6708 179.414,61.5041 179.5,62.5 Z M 101.5,69.5 C 101.5,69.1667 101.5,68.8333 101.5,68.5C 102.376,68.3691 103.043,68.7025 103.5,69.5C 103.03,70.463 102.363,70.463 101.5,69.5 Z"/></g>
<g><path style="opacity:0.008" fill="#80bbff" d="M 62.5,36.5 C 63.8333,37.1667 63.8333,37.1667 62.5,36.5 Z"/></g>
<g><path style="opacity:0.008" fill="#80bbff" d="M 64.5,37.5 C 65.8333,38.1667 65.8333,38.1667 64.5,37.5 Z"/></g>
<g><path style="opacity:0.008" fill="#80bbff" d="M 64.5,40.5 C 65.8333,41.1667 65.8333,41.1667 64.5,40.5 Z"/></g>
<g><path style="opacity:0.354" fill="#8ec3fe" d="M 179.5,62.5 C 180.475,64.1927 181.808,65.6927 183.5,67C 185.731,67.1633 187.065,65.9966 187.5,63.5C 186.147,62.4763 185.48,61.143 185.5,59.5C 186.5,59.5 187.5,59.5 188.5,59.5C 188.433,58.0413 188.766,56.7079 189.5,55.5C 190.88,55.9623 191.547,56.9623 191.5,58.5C 191.154,59.8492 190.821,61.1825 190.5,62.5C 190.11,65.7967 189.11,68.7967 187.5,71.5C 183.514,69.0452 178.847,67.2119 173.5,66C 156.779,63.6111 141.112,66.6111 126.5,75C 118.557,79.9436 110.891,85.277 103.5,91C 97.0419,93.121 90.7086,92.7877 84.5,90C 79.7144,84.2654 75.5477,78.0987 72,71.5C 59.5655,57.1135 43.8989,48.4468 25,45.5C 21.3234,45.9715 17.8234,46.6382 14.5,47.5C 14.2322,49.099 14.5655,50.4324 15.5,51.5C 16.24,55.4136 18.0734,58.7469 21,61.5C 33.7863,71.9491 44.7863,83.9491 54,97.5C 58.7188,106.913 60.7188,116.913 60,127.5C 63.7467,144.445 74.2467,152.945 91.5,153C 95.265,151.951 98.9317,150.618 102.5,149C 105.333,146.167 108.167,143.333 111,140.5C 118.667,123.167 130.834,110 147.5,101C 158.843,95.0775 170.343,89.5775 182,84.5C 183.457,87.0375 184.624,89.7041 185.5,92.5C 185.077,93.2646 184.743,94.0979 184.5,95C 185.581,96.3707 186.415,97.8707 187,99.5C 187.383,98.944 187.883,98.6107 188.5,98.5C 189.239,98.369 189.906,98.5357 190.5,99C 189.255,99.7914 187.922,100.291 186.5,100.5C 184.907,99.6521 183.74,98.3187 183,96.5C 182.612,97.428 181.945,98.0946 181,98.5C 180.035,98.0704 179.535,97.4037 179.5,96.5C 178.697,95.5768 178.53,94.5768 179,93.5C 181.31,95.9183 181.976,95.2517 181,91.5C 179.602,90.9491 178.268,90.6158 177,90.5C 165.055,96.8874 153.221,103.387 141.5,110C 135.072,114.423 129.239,119.59 124,125.5C 120.586,131.997 116.919,138.33 113,144.5C 106.609,152.529 98.2756,156.862 88,157.5C 70.2635,155.098 59.5969,145.098 56,127.5C 55.6893,121.126 55.0226,114.793 54,108.5C 50.8939,100.405 46.5606,93.0715 41,86.5C 32.6667,78.8333 24.3333,71.1667 16,63.5C 12.7764,59.7195 10.6097,55.3861 9.5,50.5C 9.83305,47.99 10.833,45.8234 12.5,44C 15.7839,42.2089 19.2839,41.0423 23,40.5C 43.1389,43.7342 60.1389,52.7342 74,67.5C 77.8887,74.11 82.3887,80.2766 87.5,86C 93.6536,89.4058 99.6536,89.0725 105.5,85C 111.817,79.8409 118.484,75.1742 125.5,71C 142.602,61.6941 160.602,58.8608 179.5,62.5 Z M 101.5,69.5 C 101.5,69.1667 101.5,68.8333 101.5,68.5C 102.376,68.3691 103.043,68.7025 103.5,69.5C 103.03,70.463 102.363,70.463 101.5,69.5 Z"/></g>
<g><path style="opacity:0.008" fill="#80bbff" d="M 157.5,43.5 C 160.64,42.3592 163.973,42.1925 167.5,43C 164.183,43.4983 160.85,43.665 157.5,43.5 Z"/></g>
<g><path style="opacity:0.008" fill="#80bbff" d="M 150.5,44.5 C 151.251,43.4265 152.251,43.2599 153.5,44C 152.552,44.4828 151.552,44.6495 150.5,44.5 Z"/></g>
<g><path style="opacity:0.008" fill="#80bbff" d="M 169.5,44.5 C 170.946,43.3871 172.613,43.2204 174.5,44C 172.866,44.4935 171.199,44.6602 169.5,44.5 Z"/></g>
<g><path style="opacity:0.008" fill="#80bbff" d="M 144.5,45.5 C 145.251,44.4265 146.251,44.2599 147.5,45C 146.552,45.4828 145.552,45.6495 144.5,45.5 Z"/></g>
<g><path style="opacity:0.008" fill="#80bbff" d="M 175.5,45.5 C 176.251,44.4265 177.251,44.2599 178.5,45C 177.552,45.4828 176.552,45.6495 175.5,45.5 Z"/></g>
<g><path style="opacity:0.008" fill="#80bbff" d="M 72.5,46.5 C 71.8333,45.1667 71.8333,45.1667 72.5,46.5 Z"/></g>
<g><path style="opacity:0.008" fill="#80bbff" d="M 140.5,46.5 C 140.897,45.475 141.563,45.3083 142.5,46C 141.906,46.4643 141.239,46.631 140.5,46.5 Z"/></g>
<g><path style="opacity:0.008" fill="#80a7ff" d="M 179.5,46.5 C 179.897,45.475 180.563,45.3083 181.5,46C 180.906,46.4643 180.239,46.631 179.5,46.5 Z"/></g>
<g><path style="opacity:0.008" fill="#80bbff" d="M 72.5,46.5 C 73.8333,47.1667 73.8333,47.1667 72.5,46.5 Z"/></g>
<g><path style="opacity:0.008" fill="#80bbff" d="M 136.5,47.5 C 136.897,46.475 137.563,46.3083 138.5,47C 137.906,47.4643 137.239,47.631 136.5,47.5 Z"/></g>
<g><path style="opacity:0.008" fill="#8080ff" d="M 182.5,46.5 C 183.833,47.1667 183.833,47.1667 182.5,46.5 Z"/></g>
<g><path style="opacity:0.008" fill="#80bbff" d="M 133.5,48.5 C 133.897,47.475 134.563,47.3083 135.5,48C 134.906,48.4643 134.239,48.631 133.5,48.5 Z"/></g>
<g><path style="opacity:0.008" fill="#8080ff" d="M 184.5,47.5 C 185.833,48.1667 185.833,48.1667 184.5,47.5 Z"/></g>
<g><path style="opacity:0.008" fill="#80bbff" d="M 131.5,48.5 C 132.833,49.1667 132.833,49.1667 131.5,48.5 Z"/></g>
<g><path style="opacity:0.008" fill="#80c0ff" d="M 181.5,49.5 C 180.833,48.1667 180.833,48.1667 181.5,49.5 Z"/></g>
<g><path style="opacity:0.008" fill="#8080ff" d="M 186.5,48.5 C 187.833,49.1667 187.833,49.1667 186.5,48.5 Z"/></g>
<g><path style="opacity:0.008" fill="#80bbff" d="M 80.5,49.5 C 81.8333,50.1667 81.8333,50.1667 80.5,49.5 Z"/></g>
<g><path style="opacity:0.008" fill="#80bbff" d="M 129.5,49.5 C 130.833,50.1667 130.833,50.1667 129.5,49.5 Z"/></g>
<g><path style="opacity:0.008" fill="#80bbff" d="M 127.5,50.5 C 128.833,51.1667 128.833,51.1667 127.5,50.5 Z"/></g>
<g><path style="opacity:0.999" fill="#fbfdff" d="M 68.5,74.5 C 72.8897,81.2844 76.223,88.6177 78.5,96.5C 86.2013,96.844 93.7013,98.1774 101,100.5C 104.655,98.0115 107.822,95.0115 110.5,91.5C 116.136,89.0063 121.136,85.5063 125.5,81C 126.793,80.51 128.127,80.3433 129.5,80.5C 135.439,79.0207 141.106,76.8541 146.5,74C 156.046,71.6904 165.713,71.0238 175.5,72C 177.061,72.941 178.395,74.1076 179.5,75.5C 169.899,80.3007 160.232,85.134 150.5,90C 146.334,92.9175 142.001,95.5841 137.5,98C 136.733,99.4705 136.067,100.97 135.5,102.5C 127.809,108.799 120.309,115.466 113,122.5C 111.464,127.108 110.131,131.775 109,136.5C 105.616,140.387 101.782,143.72 97.5,146.5C 92.1946,147.442 86.8613,147.609 81.5,147C 77.0296,144.031 72.6962,140.864 68.5,137.5C 64.0517,128.559 63.385,119.225 66.5,109.5C 64.6822,105.864 62.8489,102.198 61,98.5C 60.2917,97.6195 59.4584,96.9528 58.5,96.5C 58.6567,95.1266 58.49,93.7932 58,92.5C 54.6667,87.8333 51.3333,83.1667 48,78.5C 45.2337,75.2232 42.067,72.5566 38.5,70.5C 33.5333,66.8678 28.8666,62.8678 24.5,58.5C 17.3996,51.8261 18.7329,49.9928 28.5,53C 43.4755,57.3179 56.8088,64.4846 68.5,74.5 Z"/></g>
<g><path style="opacity:0.008" fill="#80bbff" d="M 125.5,51.5 C 126.833,52.1667 126.833,52.1667 125.5,51.5 Z"/></g>
<g><path style="opacity:0.008" fill="#80bbff" d="M 131.5,51.5 C 132.833,52.1667 132.833,52.1667 131.5,51.5 Z"/></g>
<g><path style="opacity:0.008" fill="#80bfff" d="M 185.5,53.5 C 185.947,51.0268 186.947,50.8601 188.5,53C 187.552,53.4828 186.552,53.6495 185.5,53.5 Z"/></g>
<g><path style="opacity:0.98" fill="#e5f1ff" d="M 14.5,47.5 C 18.8972,48.3008 23.2306,49.3008 27.5,50.5C 28.8083,51.2323 30.1416,52.0656 31.5,53C 45.6747,55.6716 57.8414,62.1716 68,72.5C 68.4643,73.0944 68.631,73.7611 68.5,74.5C 56.8088,64.4846 43.4755,57.3179 28.5,53C 18.7329,49.9928 17.3996,51.8261 24.5,58.5C 21.2327,56.5727 18.2327,54.2394 15.5,51.5C 14.5655,50.4324 14.2322,49.099 14.5,47.5 Z"/></g>
<g><path style="opacity:0.008" fill="#80bbff" d="M 121.5,53.5 C 122.833,54.1667 122.833,54.1667 121.5,53.5 Z"/></g>
<g><path style="opacity:0.008" fill="#80bbff" d="M 119.5,54.5 C 120.833,55.1667 120.833,55.1667 119.5,54.5 Z"/></g>
<g><path style="opacity:0.008" fill="#80bbff" d="M 117.5,55.5 C 118.833,56.1667 118.833,56.1667 117.5,55.5 Z"/></g>
<g><path style="opacity:0.008" fill="#80bbff" d="M 80.5,56.5 C 81.8333,57.1667 81.8333,57.1667 80.5,56.5 Z"/></g>
<g><path style="opacity:0.008" fill="#80bbff" d="M 82.5,56.5 C 83.8333,57.1667 83.8333,57.1667 82.5,56.5 Z"/></g>
<g><path style="opacity:0.008" fill="#80bbff" d="M 114.5,57.5 C 115.833,58.1667 115.833,58.1667 114.5,57.5 Z"/></g>
<g><path style="opacity:0.008" fill="#80bbff" d="M 85.5,59.5 C 84.8333,58.1667 84.8333,58.1667 85.5,59.5 Z"/></g>
<g><path style="opacity:0.008" fill="#80bbff" d="M 112.5,58.5 C 113.833,59.1667 113.833,59.1667 112.5,58.5 Z"/></g>
<g><path style="opacity:0.008" fill="#80bbff" d="M 85.5,59.5 C 86.8333,60.1667 86.8333,60.1667 85.5,59.5 Z"/></g>
<g><path style="opacity:0.008" fill="#80bbff" d="M 109.5,60.5 C 110.833,61.1667 110.833,61.1667 109.5,60.5 Z"/></g>
<g><path style="opacity:0.008" fill="#80bbff" d="M 114.5,60.5 C 115.833,61.1667 115.833,61.1667 114.5,60.5 Z"/></g>
<g><path style="opacity:0.008" fill="#80bbff" d="M 107.5,61.5 C 108.833,62.1667 108.833,62.1667 107.5,61.5 Z"/></g>
<g><path style="opacity:0.008" fill="#80bbff" d="M 95.5,65.5 C 97.2884,64.3775 99.2884,64.2109 101.5,65C 99.5983,66.7959 97.5983,66.9626 95.5,65.5 Z"/></g>
<g><path style="opacity:0.008" fill="#80bbff" d="M 106.5,64.5 C 107.833,65.1667 107.833,65.1667 106.5,64.5 Z"/></g>
<g><path style="opacity:0.013" fill="#fcfeff" d="M 191.5,64.5 C 192.931,65.7804 193.598,67.4471 193.5,69.5C 194.5,69.5 195.5,69.5 196.5,69.5C 196.5,73.1667 196.5,76.8333 196.5,80.5C 195.5,80.5 194.5,80.5 193.5,80.5C 192.497,84.5399 191.497,88.5399 190.5,92.5C 190.179,91.1825 189.846,89.8492 189.5,88.5C 191.335,80.5126 192.002,72.5126 191.5,64.5 Z"/></g>
<g><path style="opacity:0.008" fill="#80bbff" d="M 2.5,72.5 C 1.83333,71.1667 1.83333,71.1667 2.5,72.5 Z"/></g>
<g><path style="opacity:0.008" fill="#80bbff" d="M 3.5,72.5 C 3.84171,71.6618 4.50838,71.3284 5.5,71.5C 5.15829,72.3382 4.49162,72.6716 3.5,72.5 Z"/></g>
<g><path style="opacity:0.008" fill="#80bbff" d="M 2.5,72.5 C 2.83333,72.5 3.16667,72.5 3.5,72.5C 3.31468,73.1701 2.98135,73.1701 2.5,72.5 Z"/></g>
<g><path style="opacity:0.008" fill="#80bbff" d="M 3.5,74.5 C 4.83333,75.1667 4.83333,75.1667 3.5,74.5 Z"/></g>
<g><path style="opacity:0.008" fill="#80bbff" d="M 7.5,75.5 C 6.83333,74.1667 6.83333,74.1667 7.5,75.5 Z"/></g>
<g><path style="opacity:0.008" fill="#80bbff" d="M 7.5,75.5 C 8.16667,75.5 8.5,75.8333 8.5,76.5C 8.16667,76.1667 7.83333,75.8333 7.5,75.5 Z"/></g>
<g><path style="opacity:0.565" fill="#9fccfe" d="M 187.5,71.5 C 187.134,72.6946 186.301,73.3613 185,73.5C 183.594,72.5862 182.094,71.9195 180.5,71.5C 168.539,69.1076 156.539,68.9409 144.5,71C 138.887,73.3553 133.887,76.5219 129.5,80.5C 128.127,80.3433 126.793,80.51 125.5,81C 121.136,85.5063 116.136,89.0063 110.5,91.5C 101.8,96.1828 92.7998,96.6828 83.5,93C 81.6266,90.7911 79.46,88.9578 77,87.5C 74.875,82.4898 72.875,77.4898 71,72.5C 66.0907,67.9184 61.2574,63.4184 56.5,59C 47.3856,54.3844 37.7189,51.551 27.5,50.5C 23.2306,49.3008 18.8972,48.3008 14.5,47.5C 17.8234,46.6382 21.3234,45.9715 25,45.5C 43.8989,48.4468 59.5655,57.1135 72,71.5C 75.5477,78.0987 79.7144,84.2654 84.5,90C 90.7086,92.7877 97.0419,93.121 103.5,91C 110.891,85.277 118.557,79.9436 126.5,75C 141.112,66.6111 156.779,63.6111 173.5,66C 178.847,67.2119 183.514,69.0452 187.5,71.5 Z M 101.5,69.5 C 101.5,69.1667 101.5,68.8333 101.5,68.5C 102.376,68.3691 103.043,68.7025 103.5,69.5C 103.03,70.463 102.363,70.463 101.5,69.5 Z"/></g>
<g><path style="opacity:0.008" fill="#80bbff" d="M 92.5,66.5 C 93.8333,67.1667 93.8333,67.1667 92.5,66.5 Z"/></g>
<g><path style="opacity:0.008" fill="#80bbff" d="M 92.5,66.5 C 91.8333,65.1667 91.8333,65.1667 92.5,66.5 Z"/></g>
<g><path style="opacity:0.36" fill="#bbdcfd" d="M 190.5,62.5 C 191.338,62.8417 191.672,63.5084 191.5,64.5C 192.002,72.5126 191.335,80.5126 189.5,88.5C 189.846,89.8492 190.179,91.1825 190.5,92.5C 189.715,94.3736 189.048,96.3736 188.5,98.5C 187.883,98.6107 187.383,98.944 187,99.5C 186.415,97.8707 185.581,96.3707 184.5,95C 184.743,94.0979 185.077,93.2646 185.5,92.5C 186.649,92.2089 187.316,91.3756 187.5,90C 185.895,86.002 185.229,81.8353 185.5,77.5C 182.033,77.4457 179.366,78.9457 177.5,82C 175.527,82.4955 173.527,82.6621 171.5,82.5C 174.493,80.3631 177.66,78.3631 181,76.5C 181.64,74.735 181.473,73.0683 180.5,71.5C 182.094,71.9195 183.594,72.5862 185,73.5C 186.301,73.3613 187.134,72.6946 187.5,71.5C 189.11,68.7967 190.11,65.7967 190.5,62.5 Z"/></g>
<g><path style="opacity:0.008" fill="#80bbff" d="M 8.5,76.5 C 9.16667,76.5 9.5,76.8333 9.5,77.5C 9.16667,77.1667 8.83333,76.8333 8.5,76.5 Z"/></g>
<g><path style="opacity:0.008" fill="#80bbff" d="M 9.5,77.5 C 10.1667,77.5 10.5,77.8333 10.5,78.5C 10.1667,78.1667 9.83333,77.8333 9.5,77.5 Z"/></g>
<g><path style="opacity:0.749" fill="#c4dfff" d="M 38.5,70.5 C 42.067,72.5566 45.2337,75.2232 48,78.5C 51.3333,83.1667 54.6667,87.8333 58,92.5C 58.49,93.7932 58.6567,95.1266 58.5,96.5C 51.8344,87.8368 45.1677,79.1702 38.5,70.5 Z"/></g>
<g><path style="opacity:0.008" fill="#80bbff" d="M 10.5,78.5 C 11.1667,78.5 11.5,78.8333 11.5,79.5C 11.1667,79.1667 10.8333,78.8333 10.5,78.5 Z"/></g>
<g><path style="opacity:0.008" fill="#80bbff" d="M 11.5,79.5 C 12.1667,79.5 12.5,79.8333 12.5,80.5C 12.1667,80.1667 11.8333,79.8333 11.5,79.5 Z"/></g>
<g><path style="opacity:0.008" fill="#80bbff" d="M 12.5,80.5 C 13.1667,80.5 13.5,80.8333 13.5,81.5C 13.1667,81.1667 12.8333,80.8333 12.5,80.5 Z"/></g>
<g><path style="opacity:0.008" fill="#80bbff" d="M 13.5,81.5 C 14.1667,81.5 14.5,81.8333 14.5,82.5C 14.1667,82.1667 13.8333,81.8333 13.5,81.5 Z"/></g>
<g><path style="opacity:0.98" fill="#e5f1fe" d="M 180.5,71.5 C 181.473,73.0683 181.64,74.735 181,76.5C 177.66,78.3631 174.493,80.3631 171.5,82.5C 167.462,85.6954 162.795,87.862 157.5,89C 155.833,90 154.5,91.3333 153.5,93C 147.137,95.5414 141.137,98.708 135.5,102.5C 136.067,100.97 136.733,99.4705 137.5,98C 142.001,95.5841 146.334,92.9175 150.5,90C 160.232,85.134 169.899,80.3007 179.5,75.5C 178.395,74.1076 177.061,72.941 175.5,72C 165.713,71.0238 156.046,71.6904 146.5,74C 141.106,76.8541 135.439,79.0207 129.5,80.5C 133.887,76.5219 138.887,73.3553 144.5,71C 156.539,68.9409 168.539,69.1076 180.5,71.5 Z"/></g>
<g><path style="opacity:0.008" fill="#80bbff" d="M 14.5,82.5 C 15.8333,83.1667 15.8333,83.1667 14.5,82.5 Z"/></g>
<g><path style="opacity:0.008" fill="#80bbff" d="M 18.5,84.5 C 18.5,84.8333 18.5,85.1667 18.5,85.5C 17.8299,85.0187 17.8299,84.6853 18.5,84.5 Z"/></g>
<g><path style="opacity:0.008" fill="#80bbff" d="M 18.5,85.5 C 19.8333,86.1667 19.8333,86.1667 18.5,85.5 Z"/></g>
<g><path style="opacity:0.008" fill="#80bbff" d="M 24.5,90.5 C 24.5,90.8333 24.5,91.1667 24.5,91.5C 23.8299,91.0187 23.8299,90.6853 24.5,90.5 Z"/></g>
<g><path style="opacity:0.008" fill="#80bbff" d="M 24.5,91.5 C 25.8333,92.1667 25.8333,92.1667 24.5,91.5 Z"/></g>
<g><path style="opacity:0.562" fill="#a1ccfe" d="M 15.5,51.5 C 18.2327,54.2394 21.2327,56.5727 24.5,58.5C 28.8666,62.8678 33.5333,66.8678 38.5,70.5C 45.1677,79.1702 51.8344,87.8368 58.5,96.5C 59.4584,96.9528 60.2917,97.6195 61,98.5C 62.8489,102.198 64.6822,105.864 66.5,109.5C 63.385,119.225 64.0517,128.559 68.5,137.5C 70.7888,143.621 75.1221,147.454 81.5,149C 87.2871,150.164 92.6205,149.331 97.5,146.5C 101.782,143.72 105.616,140.387 109,136.5C 110.131,131.775 111.464,127.108 113,122.5C 120.309,115.466 127.809,108.799 135.5,102.5C 141.137,98.708 147.137,95.5414 153.5,93C 154.5,91.3333 155.833,90 157.5,89C 162.795,87.862 167.462,85.6954 171.5,82.5C 173.527,82.6621 175.527,82.4955 177.5,82C 179.366,78.9457 182.033,77.4457 185.5,77.5C 185.229,81.8353 185.895,86.002 187.5,90C 187.316,91.3756 186.649,92.2089 185.5,92.5C 184.624,89.7041 183.457,87.0375 182,84.5C 170.343,89.5775 158.843,95.0775 147.5,101C 130.834,110 118.667,123.167 111,140.5C 108.167,143.333 105.333,146.167 102.5,149C 98.9317,150.618 95.265,151.951 91.5,153C 74.2467,152.945 63.7467,144.445 60,127.5C 60.7188,116.913 58.7188,106.913 54,97.5C 44.7863,83.9491 33.7863,71.9491 21,61.5C 18.0734,58.7469 16.24,55.4136 15.5,51.5 Z"/></g>
<g><path style="opacity:0.716" fill="#b0d4ff" d="M 27.5,50.5 C 37.7189,51.551 47.3856,54.3844 56.5,59C 61.2574,63.4184 66.0907,67.9184 71,72.5C 72.875,77.4898 74.875,82.4898 77,87.5C 79.46,88.9578 81.6266,90.7911 83.5,93C 92.7998,96.6828 101.8,96.1828 110.5,91.5C 107.822,95.0115 104.655,98.0115 101,100.5C 93.7013,98.1774 86.2013,96.844 78.5,96.5C 76.223,88.6177 72.8897,81.2844 68.5,74.5C 68.631,73.7611 68.4643,73.0944 68,72.5C 57.8414,62.1716 45.6747,55.6716 31.5,53C 30.1416,52.0656 28.8083,51.2323 27.5,50.5 Z"/></g>
<g><path style="opacity:0.008" fill="#80bbff" d="M 32.5,97.5 C 31.8333,98.1667 31.8333,98.1667 32.5,97.5 Z"/></g>
<g><path style="opacity:0.008" fill="#80bbff" d="M 31.5,98.5 C 30.8333,99.1667 30.8333,99.1667 31.5,98.5 Z"/></g>
<g><path style="opacity:0.008" fill="#80a8ff" d="M 186.5,101.5 C 187.833,102.167 187.833,102.167 186.5,101.5 Z"/></g>
<g><path style="opacity:0.008" fill="#80a7ff" d="M 186.5,102.5 C 185.833,103.167 185.833,103.167 186.5,102.5 Z"/></g>
<g><path style="opacity:0.008" fill="#80bbff" d="M 32.5,106.5 C 32.56,105.957 32.8933,105.624 33.5,105.5C 34.5827,106.365 34.7494,107.365 34,108.5C 33.7216,107.584 33.2216,106.918 32.5,106.5 Z"/></g>
<g><path style="opacity:0.008" fill="#8080ff" d="M 184.5,105.5 C 185.833,106.167 185.833,106.167 184.5,105.5 Z"/></g>
<g><path style="opacity:0.008" fill="#8080ff" d="M 184.5,106.5 C 183.833,107.167 183.833,107.167 184.5,106.5 Z"/></g>
<g><path style="opacity:0.008" fill="#8080ff" d="M 181.5,107.5 C 182.833,108.167 182.833,108.167 181.5,107.5 Z"/></g>
<g><path style="opacity:0.008" fill="#80beff" d="M 179.5,108.5 C 180.833,109.167 180.833,109.167 179.5,108.5 Z"/></g>
<g><path style="opacity:0.008" fill="#80bbff" d="M 170.5,109.5 C 171.833,110.167 171.833,110.167 170.5,109.5 Z"/></g>
<g><path style="opacity:0.008" fill="#80bbff" d="M 177.5,109.5 C 178.833,110.167 178.833,110.167 177.5,109.5 Z"/></g>
<g><path style="opacity:0.008" fill="#80bbff" d="M 36.5,110.5 C 36.631,111.239 36.4643,111.906 36,112.5C 35.3083,111.563 35.475,110.897 36.5,110.5 Z"/></g>
<g><path style="opacity:0.008" fill="#80bbff" d="M 168.5,110.5 C 169.833,111.167 169.833,111.167 168.5,110.5 Z"/></g>
<g><path style="opacity:0.008" fill="#80bbff" d="M 175.5,110.5 C 176.833,111.167 176.833,111.167 175.5,110.5 Z"/></g>
<g><path style="opacity:0.008" fill="#80bbff" d="M 166.5,111.5 C 167.525,111.897 167.692,112.563 167,113.5C 166.536,112.906 166.369,112.239 166.5,111.5 Z"/></g>
<g><path style="opacity:0.008" fill="#80bbff" d="M 173.5,111.5 C 174.833,112.167 174.833,112.167 173.5,111.5 Z"/></g>
<g><path style="opacity:0.008" fill="#80bbff" d="M 171.5,112.5 C 172.833,113.167 172.833,113.167 171.5,112.5 Z"/></g>
<g><path style="opacity:0.008" fill="#80bbff" d="M 171.5,113.5 C 170.833,114.167 170.833,114.167 171.5,113.5 Z"/></g>
<g><path style="opacity:0.008" fill="#80bbff" d="M 166.5,115.5 C 167.833,116.167 167.833,116.167 166.5,115.5 Z"/></g>
<g><path style="opacity:0.008" fill="#80bbff" d="M 164.5,116.5 C 165.833,117.167 165.833,117.167 164.5,116.5 Z"/></g>
<g><path style="opacity:0.008" fill="#80bbff" d="M 36.5,118.5 C 37.5735,119.251 37.7401,120.251 37,121.5C 36.5172,120.552 36.3505,119.552 36.5,118.5 Z"/></g>
<g><path style="opacity:0.008" fill="#80bbff" d="M 159.5,120.5 C 159.897,119.475 160.563,119.308 161.5,120C 160.906,120.464 160.239,120.631 159.5,120.5 Z"/></g>
<g><path style="opacity:0.008" fill="#80bbff" d="M 152.5,120.5 C 153.833,121.167 153.833,121.167 152.5,120.5 Z"/></g>
<g><path style="opacity:0.008" fill="#80bbff" d="M 159.5,120.5 C 158.833,121.167 158.833,121.167 159.5,120.5 Z"/></g>
<g><path style="opacity:0.008" fill="#80bbff" d="M 156.5,121.5 C 157.833,122.167 157.833,122.167 156.5,121.5 Z"/></g>
<g><path style="opacity:0.008" fill="#80bbff" d="M 149.5,122.5 C 150.833,123.167 150.833,123.167 149.5,122.5 Z"/></g>
<g><path style="opacity:0.008" fill="#80bbff" d="M 37.5,126.5 C 38.525,126.897 38.6917,127.563 38,128.5C 37.5357,127.906 37.369,127.239 37.5,126.5 Z"/></g>
<g><path style="opacity:0.008" fill="#80bbff" d="M 146.5,127.5 C 147.833,128.167 147.833,128.167 146.5,127.5 Z"/></g>
<g><path style="opacity:0.008" fill="#80bbff" d="M 38.5,130.5 C 39.525,130.897 39.6917,131.563 39,132.5C 38.5357,131.906 38.369,131.239 38.5,130.5 Z"/></g>
<g><path style="opacity:0.008" fill="#80bbff" d="M 135.5,132.5 C 136.833,133.167 136.833,133.167 135.5,132.5 Z"/></g>
<g><path style="opacity:0.008" fill="#80bbff" d="M 134.5,134.5 C 135.833,135.167 135.833,135.167 134.5,134.5 Z"/></g>
<g><path style="opacity:0.008" fill="#80bbff" d="M 40.5,137.5 C 41.8333,138.167 41.8333,138.167 40.5,137.5 Z"/></g>
<g><path style="opacity:0.008" fill="#80bbff" d="M 41.5,140.5 C 42.8333,141.167 42.8333,141.167 41.5,140.5 Z"/></g>
<g><path style="opacity:0.008" fill="#80bbff" d="M 131.5,143.5 C 132.833,144.167 132.833,144.167 131.5,143.5 Z"/></g>
<g><path style="opacity:0.008" fill="#80bbff" d="M 131.5,144.5 C 131.631,145.239 131.464,145.906 131,146.5C 130.308,145.563 130.475,144.897 131.5,144.5 Z"/></g>
<g><path style="opacity:0.902" fill="#d9eaff" d="M 68.5,137.5 C 72.6962,140.864 77.0296,144.031 81.5,147C 86.8613,147.609 92.1946,147.442 97.5,146.5C 92.6205,149.331 87.2871,150.164 81.5,149C 75.1221,147.454 70.7888,143.621 68.5,137.5 Z"/></g>
<g><path style="opacity:0.008" fill="#80bbff" d="M 128.5,145.5 C 129.833,146.167 129.833,146.167 128.5,145.5 Z"/></g>
<g><path style="opacity:0.008" fill="#80bbff" d="M 127.5,146.5 C 127.833,146.5 128.167,146.5 128.5,146.5C 128.315,147.17 127.981,147.17 127.5,146.5 Z"/></g>
<g><path style="opacity:0.008" fill="#80bbff" d="M 49.5,147.5 C 48.8333,148.167 48.8333,148.167 49.5,147.5 Z"/></g>
<g><path style="opacity:0.008" fill="#80bbff" d="M 122.5,154.5 C 123.833,155.167 123.833,155.167 122.5,154.5 Z"/></g>
<g><path style="opacity:0.008" fill="#80bbff" d="M 116.5,160.5 C 117.833,161.167 117.833,161.167 116.5,160.5 Z"/></g>
<g><path style="opacity:0.008" fill="#80bbff" d="M 116.5,161.5 C 115.833,162.167 115.833,162.167 116.5,161.5 Z"/></g>
<g><path style="opacity:0.008" fill="#80bbff" d="M 62.5,163.5 C 63.8333,164.167 63.8333,164.167 62.5,163.5 Z"/></g>
<g><path style="opacity:0.008" fill="#80bbff" d="M 59.5,164.5 C 60.8333,165.167 60.8333,165.167 59.5,164.5 Z"/></g>
<g><path style="opacity:0.008" fill="#80bbff" d="M 107.5,164.5 C 108.167,164.833 108.833,165.167 109.5,165.5C 109.158,166.338 108.492,166.672 107.5,166.5C 107.5,165.833 107.5,165.167 107.5,164.5 Z"/></g>
<g><path style="opacity:0.008" fill="#80bbff" d="M 116.5,164.5 C 117.833,165.167 117.833,165.167 116.5,164.5 Z"/></g>
<g><path style="opacity:0.008" fill="#80bbff" d="M 68.5,168.5 C 68.5,168.167 68.5,167.833 68.5,167.5C 71.1667,167.833 71.1667,168.167 68.5,168.5 Z"/></g>
<g><path style="opacity:0.008" fill="#80bbff" d="M 105.5,167.5 C 104.833,168.167 104.833,168.167 105.5,167.5 Z"/></g>
<g><path style="opacity:0.008" fill="#80bbff" d="M 68.5,168.5 C 68.1034,169.525 67.4368,169.692 66.5,169C 67.0944,168.536 67.7611,168.369 68.5,168.5 Z"/></g>
<g><path style="opacity:0.008" fill="#80bbff" d="M 105.5,170.5 C 105.897,169.475 106.563,169.308 107.5,170C 106.906,170.464 106.239,170.631 105.5,170.5 Z"/></g>
<g><path style="opacity:0.008" fill="#80bbff" d="M 69.5,171.5 C 69.8966,170.475 70.5632,170.308 71.5,171C 70.9056,171.464 70.2389,171.631 69.5,171.5 Z"/></g>
<g><path style="opacity:0.008" fill="#80bbff" d="M 103.5,170.5 C 104.833,171.167 104.833,171.167 103.5,170.5 Z"/></g>
<g><path style="opacity:0.008" fill="#80bbff" d="M 72.5,172.5 C 72.8966,171.475 73.5632,171.308 74.5,172C 73.9056,172.464 73.2389,172.631 72.5,172.5 Z"/></g>
<g><path style="opacity:0.008" fill="#80bbff" d="M 100.5,172.5 C 100.897,171.475 101.563,171.308 102.5,172C 101.906,172.464 101.239,172.631 100.5,172.5 Z"/></g>
<g><path style="opacity:0.008" fill="#80bbff" d="M 75.5,173.5 C 76.2506,172.427 77.2506,172.26 78.5,173C 77.552,173.483 76.552,173.649 75.5,173.5 Z"/></g>
<g><path style="opacity:0.008" fill="#80bbff" d="M 97.5,173.5 C 97.8966,172.475 98.5632,172.308 99.5,173C 98.9056,173.464 98.2389,173.631 97.5,173.5 Z"/></g>
<g><path style="opacity:0.008" fill="#80bbff" d="M 80.5,173.5 C 85.5,174.833 90.5,174.833 95.5,173.5C 95.5,174.5 95.5,175.5 95.5,176.5C 90.5,176.5 85.5,176.5 80.5,176.5C 80.5,175.5 80.5,174.5 80.5,173.5 Z"/></g>
</svg>
