<?xml version="1.0" encoding="UTF-8"?>
<svg x="0" y="0" width="43.234" height="53.42" version="1.1" viewBox="0 0 43.234 53.42" xml:space="preserve"
    xmlns="http://www.w3.org/2000/svg">
    <g transform="translate(-8.3398 -5.3862)">
        <g stroke-width=".44755">
            <path d="m41.206 40.014c-1.5392-1.2952-7.4109-2.3796-8.2641-1.5264-0.29297 0.29297-0.79699 0.11142-1.4849-0.53487l-1.0414-0.97837 1.4635-0.47304c2.9874-0.9656 3.3186-6.3645 0.45717-7.4524-1.984-0.75432-3.8578 0.73454-4.8054 3.8182-0.25242 0.82145-0.32522 0.80804-1.389-0.25576-1.2103-1.2103-0.6913-4.4552 0.99247-6.2055 1.9112-1.9868 16.947-0.09005 19.894 2.5096 0.38862 0.3428 0.94246 0.62327 1.2308 0.62327 1.5273 0-0.40099 8.1755-2.3997 10.174-1.7654 1.7654-2.8307 1.8343-4.6531 0.30091zm2.8174-3.7944c2.6018-2.0466 0.93617-6.6808-2.4012-6.6808-2.4487 0-3.7544 1.6856-3.4457 4.4483 0.35112 3.1425 3.2722 4.2578 5.8469 2.2325zm3.5328-16.639c-0.24275-0.30769-0.56925-1.7003-0.72556-3.0948-0.15632-1.3944-0.4073-2.8561-0.55776-3.2482-0.20857-0.54352-0.02265-0.68545 0.78265-0.59752 0.97305 0.10625 1.0738-0.07846 1.28-2.3462l0.22378-2.4615 0.55944 1.8421c1.4694 4.8385 0.29808 12.265-1.5625 9.9061zm-21.438-5.1524c0.26613-2.7111 1.5353-5.9839 2.568-6.6222 0.35896-0.22185 0.41357 0.21772 0.19083 1.5361-0.26119 1.5459-0.19132 1.8468 0.4288 1.8468 1.0588 0 0.48225 1.6257-1.2697 3.5804-0.77216 0.86154-1.5815 1.7678-1.7985 2.014-0.2296 0.26046-0.27952-0.7241-0.11942-2.3552z" fill="#fcfcfc" style="fcfcfc"/>
            <path d="m39.232 57.399c-0.34264-0.67692-0.85063-1.9366-1.1289-2.7993-0.86607-2.6854-20.624-22.094-22.621-22.222-3.6359-0.2326-6.5555-3.699-5.844-6.9384l0.30089-1.3699 2.2037 2.1706c2.1596 2.1271 2.2281 2.157 3.4221 1.4889 1.9272-1.0782 1.8129-2.4779-0.38539-4.7178l-1.9044-1.9405 1.2626-0.48003c1.9604-0.74533 5.4282 1.0841 5.2532 2.7713-0.08706 0.83965 0.15171 1.3561 0.78322 1.6941 0.57496 0.30771 0.90846 0.93821 0.90846 1.7175 0 1.2822 4.8767 6.6937 5.8193 6.4575 0.24553-0.06154 0.44642 0.1667 0.44642 0.5072 0 0.9051 12.287 13.443 13.992 14.277 0.79694 0.38993 2.411 0.95148 3.5868 1.2479 3.831 0.96573 5.7553 5.3736 3.655 8.3722-1.1823 1.688-8.8698 1.5019-9.7494-0.23608zm6.8657-1.007c1.2235-1.2235 1.1228-2.4413-0.2941-3.5558-1.8468-1.4527-4.2933-0.34267-4.2933 1.948 0 2.4461 2.7761 3.4191 4.5874 1.6078zm-8.1517-8.3148c0.24282-1.631-16.74-18.006-17.69-17.056-0.72489 0.72489-0.28426 1.2511 7.9465 9.4899 8.5624 8.5708 9.4871 9.2889 9.7435 7.5664zm-3.845-15.629c0.0091-0.73846 0.10943-0.98638 0.2229-0.55092 0.11347 0.43545 0.10601 1.0396-0.01658 1.3427-0.1226 0.30301-0.21544-0.05327-0.20632-0.79174zm12.548-15.441c0-0.86154 0.09211-1.214 0.20468-0.78322 0.11257 0.43077 0.11257 1.1357 0 1.5664-0.11257 0.43077-0.20468 0.07832-0.20468-0.78322zm3.1329-2.6853c0-0.86154 0.09211-1.214 0.20468-0.78322 0.11257 0.43077 0.11257 1.1357 0 1.5664-0.11257 0.43077-0.20468 0.07832-0.20468-0.78322zm-1.8234-6.2657c0-0.61538 0.10158-0.86713 0.22574-0.55944 0.12416 0.30769 0.12416 0.81119 0 1.1189-0.12416 0.30769-0.22574 0.055944-0.22574-0.55944z" fill="#c4d0d7" style="c4d0d7"/>
            <path d="m38.352 58.294c-0.10483-0.18462-0.51952-1.3443-0.92154-2.5771-1.258-3.8577-20.25-22.415-23.254-22.722-3.4477-0.3525-6.6721-4.5443-5.6406-7.3328 0.60348-1.6314 1.4509-1.8072 1.1043-0.22919-0.7135 3.2485 2.3066 6.8253 5.8479 6.9257 3.8106 0.10801 27.361 26.271 23.648 26.271-0.32609 0-0.67866-0.15105-0.78349-0.33566zm3.6611-1.7902c-0.5567-0.70985-0.54087-0.72568 0.16898-0.16898 0.43077 0.33784 0.78322 0.69028 0.78322 0.78322 0 0.36835-0.36752 0.13127-0.95219-0.61424zm3.3921-0.23985c0.82008-1.2516 0.54671-2.4273-0.82648-3.5544-0.51816-0.4253-0.70159-0.77774-0.40762-0.78322 2.4101-0.04488 3.5378 3.8116 1.4424 4.933-0.88956 0.47608-0.8968 0.45537-0.20834-0.59535zm-17.202-15.753c-8.2307-8.2388-8.6713-8.7651-7.9465-9.4899 0.94955-0.94955 17.933 15.425 17.69 17.056-0.25645 1.7225-1.1811 1.0044-9.7435-7.5664zm10.287 4.9162c-1.0871-1.1077-1.8759-2.014-1.7528-2.014s1.1132 0.90629 2.2004 2.014c1.0871 1.1077 1.8759 2.014 1.7528 2.014-0.12308 0-1.1132-0.90629-2.2004-2.014zm7.3994 0.71795c-0.76863-2.4217-0.67494-3.7557 0.20767-2.9569 0.46201 0.41811 1.0541 0.62788 1.3158 0.46617 0.633-0.39121 0.6005-0.13642-0.17267 1.3539-0.35663 0.68741-0.54615 1.4153-0.42114 1.6176 0.12501 0.20226 0.02757 0.36775-0.21653 0.36775-0.24409 0-0.56499-0.38182-0.7131-0.84848zm-11.899-5.3054-1.5423-1.6783 1.6783 1.5423c1.5621 1.4356 1.8841 1.8143 1.5423 1.8143-0.07479 0-0.83004-0.75524-1.6783-1.6783zm-0.95248-2.4472c0.23867-0.23867 0.80779-0.35471 1.2647-0.25786 0.6153 0.13042 0.50276 0.24296-0.43395 0.43395-0.8167 0.16652-1.111 0.10414-0.83076-0.17609zm-4.4511-2.9234c-0.5567-0.70984-0.54087-0.72567 0.16898-0.16898 0.43077 0.33783 0.78322 0.69028 0.78322 0.78322 0 0.36835-0.36752 0.13127-0.95219-0.61424zm18.358-6.605c-0.34252-0.33537-1.6298-1.0146-2.8605-1.5094-1.2308-0.49482-1.9137-0.91066-1.5176-0.92408 0.39608-0.01342 1.8562 0.54864 3.2448 1.249 2.4768 1.2493 3.0779 1.2811 1.9652 0.10395-0.46169-0.48843-0.38349-0.50132 0.44755-0.07376 0.55385 0.28494 1.007 0.77024 1.007 1.0784 0 0.77028-1.5254 0.82091-2.2863 0.07589zm-32.012-1.5953c1.545-1.2153 1.5084-1.4207-0.67641-3.7909-2.4407-2.6479-1.8316-3.1728 0.74615-0.64297 2.2376 2.196 2.54 3.593 1.0099 4.6647-1.5047 1.0539-2.4547 0.85076-1.0797-0.23088zm12.022-1.1216c0.42491-0.44363 0.8689-0.71026 0.98664-0.59251s-0.22991 0.48071-0.77256 0.80659c-0.94268 0.56612-0.95222 0.55658-0.21408-0.21408zm13.689-0.04672c0.32308-0.12928 0.70909-0.11338 0.85781 0.03533 0.14872 0.14872-0.11562 0.2545-0.58741 0.23506-0.52137-0.02147-0.62742-0.12753-0.2704-0.2704zm-8.0939-0.91239c0.79451-0.09887 2.2043-0.1005 3.1329-0.0036 0.92857 0.0969 0.27851 0.17779-1.4446 0.17978-1.7231 2e-3 -2.4828-0.07728-1.6883-0.17615zm-6.9351-8.628c0-0.86154 0.0921-1.214 0.20468-0.78322 0.11257 0.43077 0.11257 1.1357 0 1.5664-0.11257 0.43077-0.20468 0.07832-0.20468-0.78322zm22.079-4.1592c0.16807-0.44138 0.41832-0.68978 0.55612-0.55198 0.1378 0.1378 2.86e-4 0.49893-0.30558 0.80252-0.44201 0.43872-0.49342 0.38731-0.25054-0.25054zm0.26567-2.5541c0-0.61538 0.10158-0.86713 0.22574-0.55944 0.12416 0.30769 0.12416 0.81119 0 1.1189-0.12416 0.30769-0.22574 0.05594-0.22574-0.55944z" fill="#8ab3c2" style="8ab3c2"/>
            <path d="m48.336 26.592c-4.6587-2.5008-10.211-3.5197-19.245-3.5318-4.5538-0.0061-7.6402-0.07308-6.8585-0.14884 1.683-0.16313 1.9311-0.44514 3.2264-3.6664 2.6111-6.4938 9.4328-9.6202 16.134-7.3943 2.321 0.7709 4.5048 3.0059 4.5048 4.6104 0 1.4905 1.3507 3.679 2.2705 3.679 0.47428 0 0.86233 0.2014 0.86233 0.44755 0 0.24615-0.2014 0.44755-0.44755 0.44755-0.73307 0-0.55059 4.3402 0.1945 4.6261 0.51206 0.1965 1.9693 2.1881 1.4996 2.0495-0.0702-0.02072-1.0339-0.52417-2.1416-1.1188zm-27.868-2.0319c0.30359-0.30587 0.66472-0.44338 0.80252-0.30558s-0.1106 0.38805-0.55198 0.55612c-0.63785 0.24288-0.68926 0.19147-0.25054-0.25054zm1.7977-0.68842c0.30769-0.12416 0.81119-0.12416 1.1189 0 0.30769 0.12416 0.05594 0.22574-0.55944 0.22574-0.61538 0-0.86713-0.10158-0.55944-0.22574zm-2.3496-0.5987c0.15213-0.24615 0.36542-0.44755 0.47397-0.44755 0.10855 0 0.19736 0.2014 0.19736 0.44755s-0.21328 0.44755-0.47397 0.44755-0.3495-0.2014-0.19736-0.44755z" fill="#fcd229" style="fcd229"/>
            <path d="m49.264 30.322c0.2227-1.715-0.15604-2.2315-2.3841-3.2516-6.2873-2.8784-16.401-3.7555-20.698-1.795-1.8714 0.85384-2.7643 0.88606-4.6532 0.1679-0.9333-0.35484-1.0182-0.51149-0.47853-0.88258 0.49659-0.34145 0.41127-0.38229-0.35083-0.16792-0.55385 0.15579-1.007 0.1546-1.007-0.0026 0-2.9962 21.299-1.4995 28.357 1.9927 0.97754 0.48365 1.9957 0.75512 2.2626 0.60327 0.26688-0.15185 0.33732-0.11266 0.15654 0.08708-0.18079 0.19974 0.01262 0.61276 0.42984 0.91783 0.63792 0.46646 0.67392 0.7404 0.22642 1.7226-0.53515 1.1745-1.9961 1.6523-1.8606 0.60847zm-25.88-6.4503c-0.30769-0.12416-0.81119-0.12416-1.1189 0-0.30769 0.12416-0.05594 0.22574 0.55944 0.22574 0.61538 0 0.86713-0.10158 0.55944-0.22574zm-11.546 1.9747-1.7692-1.9021 1.9021 1.7692c1.0462 0.97303 1.9021 1.829 1.9021 1.9021 0 0.33861-0.38975-2.19e-4 -2.035-1.7692zm37.28-0.08062c-1.0025-0.73922-1.1114-4.5089-0.14094-4.8813 0.48922-0.18773 0.71388 0.3267 0.94278 2.1587 0.37085 2.9682 0.22106 3.4768-0.80184 2.7225zm-35.049-2.1571-1.3145-1.4545 1.4545 1.3145c1.3558 1.2253 1.6603 1.5946 1.3145 1.5946-0.07702 0-0.73157-0.65454-1.4545-1.4545zm8.5317-1.0967c0.49231-0.11529 1.1469-0.53322 1.4545-0.92873 0.30769-0.39551 0.55944-0.5195 0.55944-0.27553 0 0.76006-1.0326 1.5201-1.9916 1.4658-0.89784-0.0508-0.89832-0.0564-0.02238-0.26153zm21.86-8.8872c-0.77702-0.87306-1.1971-1.5155-0.9336-1.4277 0.46489 0.15496 2.8554 3.0223 2.5156 3.0175-0.09309-0.0013-0.80499-0.71674-1.582-1.5898zm-3.5103-1.9882c-0.74584-0.3205-0.64814-0.38989 0.58585-0.4161 0.87994-0.01869 1.3687 0.15018 1.2044 0.4161-0.32246 0.52175-0.57604 0.52175-1.7902 0zm-3.2448-0.75606c0.43077-0.11257 1.1357-0.11257 1.5664 0 0.43077 0.11257 0.07832 0.20468-0.78322 0.20468-0.86154 0-1.214-0.0921-0.78322-0.20468z" fill="#f59d12" style="f59d12"/>
            <path d="m25.51 58.427c0-0.11156 0.91203-0.60627 2.0267-1.0994 1.1147-0.49309 3.179-1.9867 4.5874-3.3192l2.5607-2.4226 1.1189 1.1424c0.61538 0.62835 0.73346 0.85381 0.26239 0.50103-0.80081-0.59972-0.82263-0.57786-0.33566 0.33616 1.4753 2.769-1.5742 5.0644-6.7282 5.0644-1.9207 0-3.4922-0.09127-3.4922-0.20284zm10.385-0.58038c0.37292-0.43077 0.87082-1.1455 1.1064-1.5884 0.36876-0.6931 0.49622-0.5841 0.91586 0.78322l0.48748 1.5884h-1.5939c-1.4779 0-1.5446-0.05698-0.91586-0.78322zm6.4671-1.3779c-1.3001-1.4366-0.82937-1.9325 0.8202-0.86398 0.85849 0.55611 1.5634 1.1622 1.5664 1.3468 0.01087 0.6589-1.6591 0.32107-2.3866-0.48279zm-15.77-1.7055c1.0176-4.2093 1.1669-4.5024 2.7194-5.3385 0.86265-0.46457 1.5685-1.0398 1.5685-1.2782 0-0.23846 0.68181 0.22726 1.5151 1.035l1.5151 1.4685-1.8508 1.6432c-4.3599 3.8709-5.9834 4.6044-5.4674 2.47zm16.605-0.59839c-0.44028-0.4865-1.0253-0.77367-1.3001-0.63814-0.2748 0.13553-0.10869-0.07062 0.36913-0.4581 0.47782-0.38749 1.0939-0.70452 1.369-0.70452s0.89119 0.31703 1.369 0.70452c0.47782 0.38748 0.58528 0.55739 0.23882 0.37757-0.47659-0.24736-0.5685-0.09202-0.37756 0.63814 0.32195 1.2311-0.58726 1.275-1.6683 0.08054zm-14.573-6.9016c0.22435-0.59007 0.26971-1.2425 0.10081-1.4498s0.14418 0.0027 0.69574 0.46713c0.94014 0.79128 0.95413 0.88102 0.22378 1.4355-1.1627 0.88278-1.4754 0.74398-1.0203-0.4529zm18.402-0.97842c0.02148-0.52138 0.12753-0.62742 0.27039-0.2704 0.12928 0.32308 0.11339 0.70909-0.03531 0.85781-0.14872 0.14872-0.2545-0.11562-0.23506-0.58741zm-1.7902-1.3427c0.02148-0.52137 0.12753-0.62742 0.27039-0.2704 0.12928 0.32307 0.11339 0.70909-0.03531 0.85781-0.14872 0.14872-0.2545-0.11562-0.23506-0.58741zm1.7549 0.09209c0-0.09293 0.35245-0.44538 0.78322-0.78321 0.70984-0.5567 0.72568-0.54087 0.16898 0.16898-0.58467 0.74551-0.9522 0.98259-0.9522 0.61424zm-2.2024-1.8823c0.02148-0.52137 0.12753-0.62742 0.27039-0.2704 0.12928 0.32308 0.11339 0.70909-0.03531 0.85781-0.14872 0.14872-0.2545-0.11562-0.23506-0.58741zm1.2502-0.07459c-0.56817-0.72448-0.54711-0.73398 0.28087-0.12664 0.49231 0.36112 0.97902 0.71356 1.0816 0.78322 0.10256 0.06965-0.02383 0.12664-0.28087 0.12664-0.25704 0-0.74375-0.35245-1.0816-0.78322zm2.7424 0.38384c0-0.30171-0.23252-0.40486-0.5167-0.22922-0.33307 0.20585-0.39465 0.12185-0.17326-0.23636 0.24403-0.39485 0.48211-0.41703 0.82253-0.07661 0.2635 0.2635 0.34147 0.61671 0.17326 0.78492-0.1682 0.1682-0.30583 0.05898-0.30583-0.24273zm-18.434-7.0672c0.32308-0.12928 0.70909-0.11338 0.85781 0.03533 0.14872 0.14872-0.11562 0.2545-0.58741 0.23506-0.52137-0.02147-0.62742-0.12753-0.2704-0.2704zm8.5784-0.37642c-0.31137-0.37518-0.47946-0.76882-0.37352-0.87475 0.10593-0.10593 0.43844 0.20103 0.7389 0.68214 0.64976 1.0404 0.43306 1.1547-0.36538 0.19261zm-6.7043 0.06562c0-0.09294 0.35245-0.44538 0.78322-0.78322 0.70984-0.5567 0.72567-0.54087 0.16898 0.16898-0.58467 0.74551-0.95219 0.98259-0.95219 0.61424zm12.635-2.5163c0-0.86154 0.09211-1.214 0.20468-0.78322 0.11257 0.43077 0.11257 1.1357 0 1.5664-0.11257 0.43077-0.20468 0.07832-0.20468-0.78322zm-6.7818-0.26107c0.02147-0.52137 0.12753-0.62742 0.2704-0.2704 0.12928 0.32308 0.11338 0.70909-0.03533 0.85781-0.14872 0.14872-0.2545-0.11562-0.23506-0.58741zm10.706-2.4242c0-0.73846 0.16652-1.3427 0.37004-1.3427 0.20352 0 0.28136 0.6042 0.17298 1.3427-0.10838 0.73846-0.2749 1.3427-0.37004 1.3427-0.09514 0-0.17298-0.6042-0.17298-1.3427zm-24.672-0.33567c-0.5567-0.70984-0.54087-0.72567 0.16898-0.16898 0.43077 0.33783 0.78322 0.69028 0.78322 0.78322 0 0.36835-0.36752 0.13127-0.95219-0.61424zm8.5035-0.8951c-0.5567-0.70984-0.54087-0.72567 0.16898-0.16898 0.43077 0.33783 0.78322 0.69028 0.78322 0.78322 0 0.36835-0.36752 0.13127-0.95219-0.61424zm8.681 0.02552c0.43545-0.11347 1.0396-0.10601 1.3427 0.01658 0.30301 0.1226-0.05327 0.21544-0.79173 0.20632-0.73846-0.0091-0.98638-0.10943-0.55092-0.2229zm4.9436-1.7985c-4.7564-2.6898-18.092-3.7088-19.479-1.4885-0.53164 0.85129-2.2979 0.71831-2.0212-0.15218 1.0308-3.2424 19.163-2.0139 22.901 1.5517 1.3024 1.2423 0.70588 1.2802-1.4006 0.08895zm3.5101-10.423c0-0.61538 0.10158-0.86713 0.22574-0.55944 0.12416 0.30769 0.12416 0.81119 0 1.1189-0.12416 0.30769-0.22574 0.05594-0.22574-0.55944zm-3.6158-2.4988c0.02148-0.52137 0.12753-0.62742 0.27039-0.2704 0.12928 0.32308 0.11339 0.70909-0.03531 0.85781-0.14872 0.14872-0.2545-0.11562-0.23506-0.58741zm-20.552-0.63403c0-0.61538 0.10158-0.86713 0.22574-0.55944 0.12416 0.30769 0.12416 0.81119 0 1.1189-0.12416 0.30769-0.22574 0.05594-0.22574-0.55944zm3.2676-3.6102c-0.16225-0.26253-0.19902-0.57332-0.0817-0.69063 0.11732-0.11732 0.33256 0.09748 0.47832 0.47733 0.30263 0.78864 0.04469 0.92736-0.39662 0.2133zm-1.1005-2.377c0-0.092937 0.35245-0.44538 0.78322-0.78322 0.70984-0.5567 0.72567-0.54087 0.16898 0.16898-0.58467 0.74551-0.95219 0.98259-0.95219 0.61424zm19.967-1.2556c0.12926-0.20914 0.42249-0.26439 0.65164-0.12277 0.58557 0.3619 0.51964 0.50303-0.23501 0.50303-0.3584 0-0.54588-0.17112-0.41663-0.38026z" fill="#3e4357" style="3e4357"/>
            <path d="m24.168 57.376c0-0.68923 0.16935-1.4445 0.37633-1.6783 0.20698-0.23385 0.82948-2.185 1.3833-4.3359l1.007-3.9108-1.4952-1.212c-4.4773-3.6294-8.2562-8.9998-7.1271-10.129 1.0007-1.0007 10.914 9.5736 10.355 11.045-0.43228 1.137 0.05646 1.6899 0.64789 0.73298 0.39754-0.64323 1.5664-0.55219 1.5664 0.122 0 0.31325-0.7058 0.94965-1.5685 1.4142-1.5525 0.8361-1.7018 1.1291-2.7194 5.3385-0.49676 2.0548 2.9131 0.41352 5.8118-2.7974 0.8562-0.94842 2.0565-1.2763 2.0565-0.56178 0 0.81932-4.9321 4.9902-7.1876 6.0783-2.9705 1.433-3.1061 1.4284-3.1061-0.10572zm10.206-0.12823c1.9692-1.4481 2.2025-2.0715 1.3785-3.683-0.44882-0.87781-0.42899-0.90906 0.19432-0.30624 2.0125 1.9463 0.70362 5.3706-2.0529 5.3706h-1.3983zm8.8902-1.5636c-0.90266-0.61337-1.6412-1.2975-1.6412-1.5202 0-0.849 0.80753-0.84885 1.576 2.73e-4 1.081 1.1945 1.9902 1.1506 1.6683-0.08054-0.17292-0.66124-0.08927-0.86429 0.26568-0.64491 0.59342 0.36676 0.7056 2.7839 0.14526 3.1302-0.20503 0.12672-1.1113-0.27145-2.014-0.88483zm2.6106-6.6886c-0.24615-0.09038-1.3297-0.39139-2.4078-0.6689-2.0611-0.53052-11.059-8.6002-10.535-9.4481 0.67344-1.0897 6.822 0.01163 7.7961 1.3964 2.566 3.6476 6.6563 0.1835 8.0536-6.8206 0.28236-1.4154 0.67765-2.5734 0.87841-2.5734 0.49715 0 0.89194 2.7991 0.47342 3.3566-0.18475 0.24615-0.68989 1.5552-1.1225 2.9091s-1.1853 2.8998-1.6725 3.4354c-1.0246 1.1263-0.67388 2.1001 0.60963 1.6927 1.8766-0.59562 2.8305 1.3074 1.0597 2.1142-0.81109 0.36956-1.1189 0.85939-1.1189 1.7806 0 0.98625-0.20719 1.2708-0.92527 1.2708-0.72159 0-0.86273 0.19703-0.64117 0.8951 0.15625 0.49231 0.22017 0.8792 0.14205 0.85977-0.07813-0.01942-0.34345-0.10928-0.5896-0.19967zm1.4367-2.8983c-0.15822-0.60505 0.12733-1.1799 0.88042-1.7722 0.61303-0.48221 0.97909-1.096 0.81346-1.364-0.21355-0.34553-0.48924-0.33114-0.94788 0.0495-0.50498 0.4191-0.88849 0.40736-1.7497-0.05353-1.4953-0.80026-1.6819-0.45756-1.0713 1.9674 0.40176 1.5955 0.72526 2.0684 1.415 2.0684 0.67396 0 0.8365-0.22054 0.65999-0.8955zm-8.1246-10.393c-1.7424-2.4877-0.36604-5.7186 2.4362-5.7186 2.1122 0 3.1329 1.1906 3.1329 3.6546 0 2.859-3.9792 4.3338-5.569 2.064zm-10.51-0.6321c-1.1128-1.4147-1.1261-1.6238-0.22486-3.523 1.7115-3.6066 6.0374-2.4224 5.4042 1.4794-0.52013 3.2052-3.3785 4.333-5.1794 2.0436zm-4.4687-4.8153c-0.72297-0.87113 0.1207-3.404 1.1338-3.404 0.73452 0 0.73578 0.60266 0.0055 2.6204-0.48194 1.3315-0.61093 1.4203-1.1393 0.78362zm25.712-13.586c0.19196-4.3271 0.09219-5.6552-0.56322-7.4965-1.0478-2.9438-1.65-2.659-1.5123 0.71524 0.10504 2.5738 0.0603 2.7067-0.8173 2.4282-0.80439-0.2553-0.92842-0.10774-0.92842 1.1046 0 0.81885-0.18564 1.2845-0.44755 1.1226-0.88815-0.54891-0.53165-3.3566 0.4262-3.3566 0.75904 0 0.89124-0.36662 1.007-2.7927 0.18804-3.9413 1.1453-4.0105 2.9936-0.21634 1.6422 3.3709 2.0146 9.9042 0.70853 12.43-1.0478 2.0262-1.1172 1.7111-0.86654-3.9383zm-25.188-0.55944c0.19027-4.1628 1.1039-6.7951 3.2326-9.3137 1.5365-1.818 2.1991-1.3696 2.0937 1.4167-0.05304 1.4022 0.12187 2.0573 0.59815 2.24 0.88509 0.33964 0.86594 1.9068-0.02749 2.2497-0.52744 0.2024-0.63476 0.0614-0.43421-0.57044 0.16772-0.52845 0.01281-0.93659-0.41829-1.102-0.46304-0.17768-0.68988-0.88298-0.70076-2.1789l-0.01609-1.9161-1.11 1.3427c-1.4016 1.6954-2.4362 5.0913-2.4451 8.0253-0.0038 1.2476-0.21825 2.5705-0.47662 2.9397-0.33864 0.48394-0.42123-0.39056-0.29588-3.1329zm21.402 0.18648c0.02148-0.52137 0.12753-0.62742 0.27039-0.2704 0.12928 0.32308 0.11339 0.70909-0.03531 0.85781-0.14872 0.14872-0.2545-0.11562-0.23506-0.58741z" fill="#050505" style="050505"/>
        </g>
    </g>
</svg>
