<?xml version="1.0" encoding="UTF-8"?>
<svg version="1.1" x="0" y="0" width="209" height="256" viewBox="0 0 209 256"
    xmlns="http://www.w3.org/2000/svg">
    <path d="m67 252.93c-14.9-1.212-33.101-4.3535-42.481-7.3321-10.406-3.3044-16.135-6.9249-19.597-12.384-2.5674-4.0484-2.9217-5.5257-2.9165-12.162 0.017317-22.191 8.3202-51.426 22.092-77.786l6.9128-13.232-4.3862-9.7679c-9.9793-22.223-13.997-41.07-14.02-65.768-0.017055-18.103 1.1739-25.386 5.8871-36 3.1231-7.0331 4.7877-8.1282 13.509-8.8873 5.5429-0.48245 9.419-1.5609 14.854-4.1327 9.9582-4.7124 14.817-4.7257 19.911-0.054394 3.6366 3.335 3.7332 3.606 3.655 10.25-0.06821 5.7986-0.84884 8.7131-5.1933 19.389-11.232 27.602-12.104 50.526-2.7304 71.782l3.3754 7.6538h73.547l2.2403-7c2.7948-8.7324 2.8517-14.659 0.3411-35.5-1.0932-9.075-1.9905-16.838-1.9938-17.25-0.00338-0.4125 0.89385-1.65 1.9938-2.75 4.3902-4.3902 18.959-1.0253 25.8 5.9587 2.7336 2.7908 4.8378 3.9502 8.0551 4.4381 5.9534 0.90281 9.5314 2.931 12.843 7.2804 2.6715 3.5083 2.799 4.1706 2.744 14.251-0.0743 13.613-3.7161 27.365-11.099 41.913l-5.2482 10.341 9.3962 19.659c15.135 31.665 20.658 48.713 20.803 64.214 0.0822 8.7891-2.321 14.279-8.3834 19.15-7.1349 5.7333-25.383 9.9805-54.91 12.78-15.902 1.5078-61.088 2.078-75 0.94639zm60.854-11.589 6.3541-0.63962-0.59367-3.7126c-1.0347-6.4707-4.5346-16.619-6.6657-19.329-1.1467-1.4578-3.912-3.1217-6.2524-3.7621-5.5557-1.5202-24.573-1.5838-27.349-0.0914-4.4625 2.3995-9.3335 24.094-6.2452 27.815 1.2358 1.4891 3.1866 1.5998 17.892 1.0153 9.0779-0.3608 19.365-0.94383 22.859-1.2956zm-55.918-4.093c0.55908-2.0625 1.9348-7.2704 3.0572-11.573 3.4675-13.293 7.7171-19.862 15.507-23.969 3.1348-1.6529 6.2989-2.1969 14.628-2.5149 11.457-0.43739 19.8 1.1952 24.988 4.89 4.2018 2.9919 8.4438 10.584 11.966 21.417 5.4394 16.729 8.0153 18.483 17.632 12.006 14.405-9.701 16.402-14.683 9.1769-22.892-5.3566-6.0854-12.019-10.608-16.67-11.316-9.9513-1.5143-22.357-10.958-27.072-20.608-3.4457-7.0523-4.8628-16.429-3.0547-20.212 0.83548-1.7482 2.3488-3.1103 3.664-3.2979 2.6714-0.38099 2.8314-2.2544 0.70683-8.2762-2.0661-5.8559-4.6194-8.337-11.322-11.001-8.2869-3.2945-10.949-5.4637-12.142-9.8927-0.59414-2.2064-1.8185-4.1342-2.8296-4.4551-0.98028-0.31113-7.1577-0.12039-13.728 0.42386-19.999 1.6567-23.8 1.435-27.405-1.5979-5.1097-4.2996-8.7274-13.046-12.095-29.241-4.3026-20.694-1.8729-41.445 7.5967-64.88 4.9822-12.33 6.3841-17.26 4.9075-17.26-0.98432 0-5.8848 2.7425-11.453 6.4094-5.6853 3.7442-9.1727 4.3792-13.421 2.4436-3.2028-1.4593-4.6585-0.33772-7.5525 5.8189-3.0066 6.3963-4.3248 23.835-3.0409 40.229 1.5877 20.272 5.6322 34.133 15.187 52.048l5.15 9.6561-5.5864 10.447c-11.21 20.964-17.43 37.533-22.174 59.068-2.652 12.038-3.338 24.558-1.5305 27.935 2.1675 4.0501 10.591 6.6632 35.47 11.004 21.149 3.6902 20.207 3.7258 21.436-0.80976zm-28.824-31.348c-6.3263-0.8424-10.489-3.5738-10.92-7.1654-0.41221-3.4316 1.978-4.1024 11.649-3.2689 6.4426 0.55528 8.7718 0.29882 14.66-1.6141l7-2.2743-8.6419-0.63149c-14.433-1.0547-21.858-7.3244-21.858-18.458 0-7.1906 1.9379-9.8438 9.2037-12.601 5.5079-2.0901 7.9867-2.3892 19.796-2.3892 15.381 0 19.014 1.2264 22.313 7.534 3.625 6.9302 0.35279 21.327-6.7585 29.736-6.8259 8.0709-22.796 12.95-36.442 11.133zm136.89 29.098c0-0.55-0.9-1-2-1s-2 0.45-2 1 0.9 1 2 1 2-0.45 2-1zm12.36-6.75c4.1272-14.611-3.5623-42.155-20.509-73.466-4.3807-8.0937-8.2159-16.263-8.5227-18.153-0.46216-2.848 0.57498-5.7264 6.0475-16.784 7.3812-14.914 9.3608-21.858 10.29-36.097l0.63663-9.75-2.9011-0.0056c-6.0998-0.0117-10.639-2.169-16.984-8.0711-3.5019-3.2578-6.8914-5.9233-7.5322-5.9233-1.2197 0-1.0948 2.0936 1.1334 19 2.2086 16.758-2.027 38.331-8.6623 44.12-1.021 0.89073-3.179 2.0441-4.7956 2.563-6.9296 2.2246-8.9292 11.941-4.5516 22.117 2.9174 6.7818 4.6082 8.0856 12.11 9.339 15.902 2.657 17.226 3.052 20.202 6.0279 2.7339 2.7339 2.9067 3.3421 2.3854 8.3934-0.71452 6.923-4.8061 16.02-7.6051 16.908-1.1555 0.36673-2.1008 1.3114-2.1008 2.0994 0 1.0549 1.3354 1.4326 5.0657 1.4326 8.4458 0 11.586 3.2167 6.4343 6.592-3.6799 2.4112-3.1077 3.9578 2.8815 7.7891 6.5293 4.1768 7.9694 6.131 10.737 14.571 2.8901 8.8126 5.0871 11.382 6.2407 7.2978zm-41.818-38.183c-0.36254-0.58659-1.4201-1.0522-2.3501-1.0347-1.4846 0.0279-1.4558 0.2097 0.23602 1.4897 2.0551 1.5548 3.2034 1.3076 2.1141-0.45494zm-25.741-60.267c2.0075-2.0075 1.3596-3.5487-1.9815-4.7134-6.4041-2.2325-13.689 1.3416-9.2898 4.558 2.2942 1.6775 9.6478 1.7789 11.271 0.15539z" fill="#ffffff" style="#ffffff"/>
</svg>
