<?xml version="1.0" encoding="UTF-8"?>
<svg version="1.1" x="0" y="0" width="256" height="256" viewBox="0 0 256 256"
    xmlns="http://www.w3.org/2000/svg">
    <g transform="matrix(1.3333 0 0 -1.3333 0 256)" fill="#ffffffff" style="fill:ffffffff">
        <g transform="translate(180.32 138.64)">
            <path fill="#ffffff" d="m-84.322 19.362s-55.036 3.36e-4 -68.761-3.7017c-7.573-2.037-13.537-8.0387-15.561-15.661-3.677-13.814-3.6768-42.637-3.6768-42.637s-2.4e-4 -28.822 3.6768-42.637c2.024-7.622 7.988-13.624 15.561-15.662 13.725-3.701 68.761-3.7002 68.761-3.7002s55.037-8e-4 68.761 3.7002c7.573 2.038 13.537 8.0401 15.561 15.662 3.678 13.815 3.6782 42.637 3.6782 42.637s-2.264e-4 28.823-3.6782 42.637c-2.024 7.622-7.988 13.624-15.561 15.661-13.724 3.702-68.761 3.7017-68.761 3.7017zm-18-35.83 46-26.171-46-26.168v52.339z" />
        </g>
    </g>
</svg>